<svg width="110" height="23" viewBox="0 0 110 23" fill="none" xmlns="http://www.w3.org/2000/svg">
<path d="M17.8979 8.54901H0.697263C0.31215 8.54901 -6.22463e-05 8.93072 9.30877e-09 9.40147C9.30877e-09 9.87229 0.312275 10.2539 0.697388 10.2539H17.8981C18.2832 10.2539 18.5953 9.87229 18.5953 9.40147C18.5953 8.93072 18.283 8.54901 17.8979 8.54901Z" fill="#0B3CEA"/>
<path d="M8.83984 0.974104L8.84096 21.6387C8.84096 22.1014 9.2239 22.4764 9.69617 22.4764C10.1685 22.4764 10.5514 22.1014 10.5513 21.6387L10.5502 0.974104C10.5502 0.511417 10.1673 0.136353 9.69499 0.136353C9.22265 0.136353 8.83978 0.511417 8.83984 0.974104Z" fill="#0B3CEA"/>
<path d="M21.5719 11.9658H0.841853C0.377675 11.9658 0.00146484 12.3474 0.00146484 12.8182C0.0015271 13.289 0.3778 13.6707 0.841978 13.6707H21.572C22.0361 13.6707 22.4124 13.289 22.4123 12.8182C22.4123 12.3474 22.036 11.9658 21.5719 11.9658Z" fill="#0B3CEA"/>
<path d="M12.2583 4.62667L12.2592 21.7809C12.2593 22.1651 12.6422 22.4764 13.1145 22.4764C13.5868 22.4764 13.9696 22.1651 13.9696 21.7809L13.9686 4.62667C13.9686 4.24255 13.5858 3.93121 13.1134 3.93121C12.6412 3.93121 12.2583 4.24255 12.2583 4.62667Z" fill="#0B3CEA"/>
<path d="M34.3154 22.8636C33.0006 22.8636 31.7754 22.5359 30.6398 21.8806C29.5242 21.2253 28.6377 20.3416 27.9803 19.2296C27.3229 18.1176 26.9941 16.9062 26.9941 15.5956V8.6553C26.9941 7.34468 27.3229 6.13336 27.9803 5.02132C28.6377 3.90928 29.5242 3.0256 30.6398 2.37029C31.7754 1.71498 33.0006 1.38733 34.3154 1.38733C35.6302 1.38733 36.8455 1.71498 37.9611 2.37029C39.0966 3.0256 39.9931 3.90928 40.6505 5.02132C41.3079 6.13336 41.6367 7.34468 41.6367 8.6553V15.5956C41.6367 16.9062 41.3079 18.1176 40.6505 19.2296C39.9931 20.3416 39.0966 21.2253 37.9611 21.8806C36.8455 22.5359 35.6302 22.8636 34.3154 22.8636ZM34.3154 20.57C35.192 20.57 35.9988 20.3416 36.7359 19.8849C37.4929 19.4282 38.0906 18.8225 38.5289 18.0679C38.9671 17.2935 39.1863 16.4694 39.1863 15.5956V8.6553C39.1863 7.78156 38.9671 6.96738 38.5289 6.21279C38.0906 5.43833 37.4929 4.82274 36.7359 4.36601C35.9988 3.90928 35.192 3.68091 34.3154 3.68091C33.4388 3.68091 32.622 3.90928 31.865 4.36601C31.1279 4.82274 30.5402 5.43833 30.1019 6.21279C29.6637 6.96738 29.4445 7.78156 29.4445 8.6553V15.5956C29.4445 16.4694 29.6637 17.2935 30.1019 18.0679C30.5402 18.8225 31.1279 19.4282 31.865 19.8849C32.622 20.3416 33.4388 20.57 34.3154 20.57ZM45.3122 22.4764C45.1529 22.4764 45.0234 22.4267 44.9238 22.3274C44.8242 22.2281 44.7743 22.109 44.7743 21.97C44.7743 21.8707 44.8042 21.7615 44.864 21.6423L50.1233 13.5999L45.4616 6.45108C45.4019 6.33193 45.372 6.22271 45.372 6.12342C45.372 5.98442 45.4218 5.86527 45.5214 5.76598C45.621 5.66669 45.7505 5.61705 45.9099 5.61705H47.3443C47.5435 5.61705 47.6929 5.69648 47.7925 5.85534L51.4681 11.5148L55.1436 5.85534C55.2432 5.69648 55.3927 5.61705 55.5919 5.61705H57.0262C57.1856 5.61705 57.3151 5.66669 57.4147 5.76598C57.5143 5.86527 57.5641 5.98442 57.5641 6.12342C57.5641 6.22271 57.5343 6.33193 57.4745 6.45108L52.8128 13.5999L58.0721 21.6423C58.1319 21.7615 58.1618 21.8707 58.1618 21.97C58.1618 22.109 58.112 22.2281 58.0124 22.3274C57.9128 22.4267 57.7833 22.4764 57.6239 22.4764H56.1895C55.9903 22.4764 55.8409 22.3969 55.7413 22.2381L51.4681 15.685L47.1948 22.2381C47.0952 22.3969 46.9458 22.4764 46.7466 22.4764H45.3122ZM63.1317 22.4764C62.8328 22.4764 62.5738 22.3771 62.3547 22.1785C62.1555 21.9601 62.0559 21.7019 62.0559 21.404V2.84688C62.0559 2.54901 62.1555 2.30079 62.3547 2.10221C62.5738 1.88378 62.8328 1.77456 63.1317 1.77456H68.4508C69.8652 1.77456 71.1701 2.132 72.3654 2.84688C73.5607 3.54191 74.507 4.49508 75.2043 5.70641C75.9015 6.89788 76.2502 8.2085 76.2502 9.63826V14.6127C76.2502 16.0424 75.9015 17.363 75.2043 18.5743C74.507 19.7658 73.5607 20.7189 72.3654 21.4338C71.1701 22.1288 69.8652 22.4764 68.4508 22.4764H63.1317ZM68.4508 20.1828C69.4269 20.1828 70.3234 19.9445 71.1402 19.4679C71.957 18.9913 72.6045 18.3459 73.0826 17.5318C73.5607 16.6977 73.7998 15.7942 73.7998 14.8212V9.39997C73.7998 8.42694 73.5607 7.53333 73.0826 6.71916C72.6045 5.90499 71.957 5.25961 71.1402 4.78302C70.3234 4.30643 69.4269 4.06814 68.4508 4.06814H64.5063V20.1828H68.4508ZM86.6163 22.4764C85.441 22.4764 84.3552 22.1884 83.3591 21.6125C82.363 21.0367 81.5761 20.2523 80.9984 19.2594C80.4207 18.2466 80.1318 17.1545 80.1318 15.9828V11.7233C80.1318 10.5517 80.4207 9.46947 80.9984 8.47658C81.5761 7.46383 82.363 6.66951 83.3591 6.09364C84.3552 5.51776 85.441 5.22982 86.6163 5.22982C87.7917 5.22982 88.8775 5.51776 89.8736 6.09364C90.8696 6.66951 91.6566 7.46383 92.2343 8.47658C92.812 9.46947 93.1009 10.5517 93.1009 11.7233V13.7488C93.1009 14.0467 92.9913 14.3049 92.7722 14.5233C92.573 14.7219 92.3239 14.8212 92.0251 14.8212H82.4626V16.1318C82.4626 16.8864 82.6419 17.5814 83.0005 18.2169C83.3791 18.8523 83.8871 19.3587 84.5246 19.736C85.1621 20.0934 85.8593 20.2721 86.6163 20.2721H90.9493C91.0689 20.2721 91.1685 20.3119 91.2482 20.3913C91.3279 20.4707 91.3677 20.57 91.3677 20.6892V22.0593C91.3677 22.1785 91.3279 22.2778 91.2482 22.3572C91.1685 22.4366 91.0689 22.4764 90.9493 22.4764H86.6163ZM90.77 12.6765V11.5744C90.77 10.8198 90.5808 10.1248 90.2023 9.48933C89.8437 8.85388 89.3456 8.35743 88.7081 7.99999C88.0706 7.62269 87.3734 7.43404 86.6163 7.43404C85.8593 7.43404 85.1621 7.62269 84.5246 7.99999C83.8871 8.35743 83.3791 8.85388 83.0005 9.48933C82.6419 10.1248 82.4626 10.8198 82.4626 11.5744V12.6765H90.77ZM102.078 22.4764C101.958 22.4764 101.838 22.4466 101.719 22.387C101.619 22.3076 101.55 22.2083 101.51 22.0891L95.8918 6.27236C95.8719 6.23264 95.8619 6.16314 95.8619 6.06385C95.8619 5.9447 95.9018 5.84541 95.9815 5.76598C96.0811 5.66669 96.2006 5.61705 96.34 5.61705H97.7147C97.8342 5.61705 97.9437 5.65676 98.0434 5.7362C98.1629 5.79577 98.2426 5.88513 98.2824 6.00428L103.004 19.587L107.636 6.00428C107.676 5.88513 107.745 5.79577 107.845 5.7362C107.964 5.65676 108.084 5.61705 108.203 5.61705H109.518C109.698 5.61705 109.827 5.68655 109.907 5.82556C110.006 5.9447 110.026 6.09364 109.967 6.27236L104.349 22.0891C104.309 22.2083 104.229 22.3076 104.11 22.387C104.01 22.4466 103.9 22.4764 103.781 22.4764H102.078Z" fill="black"/>
<path d="M28.3545 5.72007L30.5395 4.23328L40.3138 18.5059L38.1285 19.9927L28.3545 5.72007Z" fill="black"/>
</svg>
