<svg width="20" height="21" viewBox="0 0 20 21" fill="none" xmlns="http://www.w3.org/2000/svg">
<g id="quotation-marks-svgrepo-com 1">
<g id="Group">
<path id="Vector" d="M17.0342 3.23535C13.6474 3.23535 11.0508 5.86608 11.0508 9.24845V17.3285C11.0508 17.6292 11.3142 17.8923 11.6153 17.8923H18.0126C18.3137 17.8923 18.5771 17.6292 18.5771 17.3285V10.9396C18.5771 10.639 18.3137 10.3759 18.0126 10.3759H13.3087V9.24845C13.3087 7.36935 15.1526 5.49026 17.0342 5.49026H18.0126C18.3137 5.49026 18.5771 5.22719 18.5771 4.92653V3.79908C18.5771 3.49842 18.3137 3.23535 18.0126 3.23535H17.0342Z" fill="#2C2C2C"/>
<path id="Vector_2" d="M7.70168 3.23535C4.31484 3.23535 1.71826 5.86608 1.71826 9.24845V17.3285C1.71826 17.6292 1.98168 17.8923 2.28274 17.8923H8.6801C8.98116 17.8923 9.24458 17.6292 9.24458 17.3285V10.9396C9.24458 10.639 8.98116 10.3759 8.6801 10.3759H3.97616V9.24845C3.97616 7.36935 5.8201 5.49026 7.70168 5.49026H8.6801C8.98116 5.49026 9.24458 5.22719 9.24458 4.92653V3.79908C9.24458 3.49842 8.98116 3.23535 8.6801 3.23535H7.70168Z" fill="#2C2C2C"/>
</g>
</g>
</svg>
