<svg width="23" height="22" viewBox="0 0 23 22" fill="none" xmlns="http://www.w3.org/2000/svg">
<path d="M19.4999 2.75C15.6922 2.75 12.7729 5.71154 12.7729 9.51923V18.6154C12.7729 18.9538 13.0691 19.25 13.4076 19.25H20.5999C20.9383 19.25 21.2345 18.9538 21.2345 18.6154V11.4231C21.2345 11.0846 20.9383 10.7885 20.5999 10.7885H15.3114V9.51923C15.3114 7.40385 17.3845 5.28846 19.4999 5.28846H20.5999C20.9383 5.28846 21.2345 4.99231 21.2345 4.65385V3.38462C21.2345 3.04615 20.9383 2.75 20.5999 2.75H19.4999Z" fill="#2C2C2C"/>
<path d="M9.00768 2.75C5.19999 2.75 2.28076 5.71154 2.28076 9.51923V18.6154C2.28076 18.9538 2.57692 19.25 2.91538 19.25H10.1077C10.4461 19.25 10.7423 18.9538 10.7423 18.6154V11.4231C10.7423 11.0846 10.4461 10.7885 10.1077 10.7885H4.81922V9.51923C4.81922 7.40385 6.8923 5.28846 9.00768 5.28846H10.1077C10.4461 5.28846 10.7423 4.99231 10.7423 4.65385V3.38462C10.7423 3.04615 10.4461 2.75 10.1077 2.75H9.00768Z" fill="#2C2C2C"/>
</svg>
