<svg width="178" height="48" viewBox="0 0 178 48" fill="none" xmlns="http://www.w3.org/2000/svg">
<path id="Vector" fill-rule="evenodd" clip-rule="evenodd" d="M13.0874 5.27739L9.24121 7.56668L0 3.29319L9.46178 0L13.2884 2.46524C47.2239 2.54912 81.1593 2.54604 115.095 2.54604C127.149 2.54604 139.623 2.6326 148.943 2.53398C154.134 2.44357 159.519 2.47807 164.712 2.46524L168.538 0L178 3.29319L168.759 7.56668L164.913 5.27739L163.021 5.27175C163.077 12.6653 170.798 12.9147 171.681 12.9182L174.782 12.9364V37.4929H171.669C163.344 37.4929 163.027 44.4458 163.02 45.2389L163.003 48H160.425H157.848H20.7507H18.7809H15.6684V45.2197C15.6684 37.7461 7.89576 37.4964 7.00751 37.4929L3.90849 37.4786V12.9182H7.0199C15.1315 12.9182 15.6398 6.38786 15.667 5.26969L13.0874 5.27739ZM20.2158 8.52415H158.278V7.46203H20.2158V8.52415ZM159.826 45.4238C160.296 41.3124 163.25 34.7121 171.669 34.7121L171.664 15.6987C167.611 15.6807 159.954 13.4748 159.909 5.26302C145.078 5.22378 130.001 5.21224 115.095 5.19518H101.433H76.5672H67.4397L59.2394 5.20634C44.2783 5.21839 32.8177 5.22391 18.688 5.26136L18.7787 5.34549C18.6917 9.01277 16.1519 15.6987 7.0199 15.6987L7.02433 34.7121C11.0902 34.7308 18.7809 38.2169 18.7809 46.4874V45.4238H159.826Z" fill="#393939"/>
</svg>
