<svg width="19" height="18" viewBox="0 0 19 18" fill="none" xmlns="http://www.w3.org/2000/svg">
<path d="M13.0794 11.3606L12.6049 11.8323C12.6049 11.8323 11.4772 12.9536 8.39906 9.89291C5.32096 6.8323 6.44864 5.71101 6.44864 5.71101L6.74739 5.41393C7.48344 4.68212 7.55281 3.50719 6.91062 2.64945L5.59714 0.894871C4.80237 -0.166754 3.26662 -0.306993 2.35567 0.598778L0.720675 2.2245C0.268988 2.67362 -0.0336998 3.25582 0.00300854 3.90167C0.0969148 5.55398 0.844487 9.10906 5.016 13.2569C9.43968 17.6554 13.5904 17.8302 15.2878 17.672C15.8247 17.622 16.2916 17.3485 16.6678 16.9744L18.1476 15.5031C19.1465 14.5099 18.8648 12.8072 17.5868 12.1125L15.5967 11.0306C14.7575 10.5745 13.7352 10.7084 13.0794 11.3606Z" fill="#0B3CEA"/>
</svg>
