<svg width="35" height="35" viewBox="0 0 35 35" fill="none" xmlns="http://www.w3.org/2000/svg">
<path d="M29.7752 4.375C23.7175 4.375 19.0732 9.08654 19.0732 15.1442V29.6154C19.0732 30.1538 19.5444 30.625 20.0829 30.625H31.5252C32.0636 30.625 32.5348 30.1538 32.5348 29.6154V18.1731C32.5348 17.6346 32.0636 17.1635 31.5252 17.1635H23.1117V15.1442C23.1117 11.7788 26.4098 8.41346 29.7752 8.41346H31.5252C32.0636 8.41346 32.5348 7.94231 32.5348 7.40385V5.38462C32.5348 4.84615 32.0636 4.375 31.5252 4.375H29.7752Z" fill="white"/>
<path d="M13.0828 4.375C7.02509 4.375 2.38086 9.08654 2.38086 15.1442V29.6154C2.38086 30.1538 2.85201 30.625 3.39047 30.625H14.8328C15.3712 30.625 15.8424 30.1538 15.8424 29.6154V18.1731C15.8424 17.6346 15.3712 17.1635 14.8328 17.1635H6.41932V15.1442C6.41932 11.7788 9.7174 8.41346 13.0828 8.41346H14.8328C15.3712 8.41346 15.8424 7.94231 15.8424 7.40385V5.38462C15.8424 4.84615 15.3712 4.375 14.8328 4.375H13.0828Z" fill="white"/>
</svg>
